<svg width="52" height="52" viewBox="0 0 52 52" fill="none" xmlns="http://www.w3.org/2000/svg">
<path d="M23.833 6.8901V45.1101C23.833 46.4968 22.5547 47.5368 21.2113 47.2334C11.5263 45.0668 4.33301 36.3784 4.33301 26.0001C4.33301 15.6218 11.5263 6.93344 21.2113 4.76677C21.5278 4.69798 21.8556 4.70114 22.1707 4.77602C22.4858 4.8509 22.78 4.99559 23.0316 5.19941C23.2833 5.40323 23.4859 5.66097 23.6247 5.9536C23.7634 6.24622 23.8346 6.56627 23.833 6.8901ZM28.2313 6.8901V21.6451C28.2313 22.8368 29.2063 23.8118 30.398 23.8118H45.1097C46.4963 23.8118 47.5363 22.5334 47.233 21.1684C45.3913 13.0218 38.9997 6.60844 30.8747 4.76677C29.5097 4.46344 28.2313 5.50344 28.2313 6.8901ZM28.2313 30.3551V45.1101C28.2313 46.4968 29.5097 47.5368 30.8747 47.2334C39.0213 45.3918 45.413 38.9568 47.2547 30.8101C47.558 29.4668 46.4963 28.1668 45.1313 28.1668H30.4197C29.2063 28.1884 28.2313 29.1634 28.2313 30.3551Z" fill="url(#paint0_linear_479_10179)"/>
<defs>
<linearGradient id="paint0_linear_479_10179" x1="25.8199" y1="4.71387" x2="25.8199" y2="47.2863" gradientUnits="userSpaceOnUse">
<stop stop-color="white"/>
<stop offset="1" stop-color="#CDFEFB"/>
</linearGradient>
</defs>
</svg>
