<svg width="52" height="52" viewBox="0 0 52 52" fill="none" xmlns="http://www.w3.org/2000/svg">
<path d="M43.3337 29.7918C43.3337 29.3609 43.1625 28.9475 42.8577 28.6428C42.553 28.338 42.1396 28.1668 41.7087 28.1668H35.2087C34.7777 28.1668 34.3644 28.338 34.0596 28.6428C33.7549 28.9475 33.5837 29.3609 33.5837 29.7918V44.4168H30.3337V9.2085C30.3337 7.63116 30.3293 6.6085 30.2297 5.85883C30.1343 5.15466 29.9805 4.93366 29.857 4.81016C29.7335 4.68666 29.5125 4.53283 28.8083 4.4375C28.0565 4.33783 27.036 4.3335 25.4587 4.3335C23.8813 4.3335 22.8587 4.33783 22.109 4.4375C21.4048 4.53283 21.1838 4.68666 21.0603 4.81016C20.9368 4.93366 20.783 5.15466 20.6877 5.85883C20.588 6.61066 20.5837 7.63116 20.5837 9.2085V44.4168H17.3337V18.9585C17.3337 18.5275 17.1625 18.1142 16.8577 17.8094C16.553 17.5047 16.1396 17.3335 15.7087 17.3335H9.20866C8.77768 17.3335 8.36436 17.5047 8.05961 17.8094C7.75486 18.1142 7.58366 18.5275 7.58366 18.9585V44.4168H3.79199C3.36102 44.4168 2.94769 44.588 2.64294 44.8928C2.3382 45.1975 2.16699 45.6108 2.16699 46.0418C2.16699 46.4728 2.3382 46.8861 2.64294 47.1909C2.94769 47.4956 3.36102 47.6668 3.79199 47.6668H47.1253C47.5563 47.6668 47.9696 47.4956 48.2744 47.1909C48.5791 46.8861 48.7503 46.4728 48.7503 46.0418C48.7503 45.6108 48.5791 45.1975 48.2744 44.8928C47.9696 44.588 47.5563 44.4168 47.1253 44.4168H43.3337V29.7918Z" fill="url(#paint0_linear_479_10177)"/>
<defs>
<linearGradient id="paint0_linear_479_10177" x1="25.4587" y1="4.3335" x2="25.4587" y2="47.6668" gradientUnits="userSpaceOnUse">
<stop stop-color="white"/>
<stop offset="1" stop-color="#CDFEFB"/>
</linearGradient>
</defs>
</svg>
