<svg width="52" height="52" viewBox="0 0 52 52" fill="none" xmlns="http://www.w3.org/2000/svg">
<path d="M5.2002 5.2C5.2002 2.34 7.5402 0 10.4002 0H41.6002C42.9793 0 44.302 0.547856 45.2771 1.52304C46.2523 2.49823 46.8002 3.82087 46.8002 5.2V46.8C46.8002 48.1791 46.2523 49.5018 45.2771 50.477C44.302 51.4521 42.9793 52 41.6002 52H10.4002C9.02107 52 7.69843 51.4521 6.72324 50.477C5.74805 49.5018 5.2002 48.1791 5.2002 46.8V5.2ZM13.0002 7.8V13H39.0002V7.8H13.0002ZM13.0002 18.2V23.4H18.2002V18.2H13.0002ZM23.4002 18.2V23.4H28.6002V18.2H23.4002ZM33.8002 18.2V23.4H39.0002V18.2H33.8002ZM13.0002 28.6V33.8H18.2002V28.6H13.0002ZM23.4002 28.6V33.8H28.6002V28.6H23.4002ZM33.8002 28.6V44.2H39.0002V28.6H33.8002ZM13.0002 39V44.2H18.2002V39H13.0002ZM23.4002 39V44.2H28.6002V39H23.4002Z" fill="url(#paint0_linear_479_10178)"/>
<defs>
<linearGradient id="paint0_linear_479_10178" x1="26.0002" y1="0" x2="26.0002" y2="52" gradientUnits="userSpaceOnUse">
<stop stop-color="white"/>
<stop offset="1" stop-color="#CDFEFB"/>
</linearGradient>
</defs>
</svg>
