<svg xmlns="http://www.w3.org/2000/svg" width="1440" height="777" fill="none"><g clip-path="url(#a)"><path fill="#F9FAFB" d="M0 0h1440v777H0z"/><path stroke="#000" stroke-opacity=".15" d="M420.004-202.043C918.233 492.054 1522.97 183.151 1763.06-58.063M0 248c494.8 124.4 551.833 612.5 518.5 841"/><g filter="url(#b)"><path fill="#00F0FF" fill-opacity=".8" d="m299.166 530.577 13.636 22.137-25.99.74-13.635-22.136z"/></g><g filter="url(#c)"><path fill="#0094FF" fill-opacity=".8" d="m311.52 507.699 13.636 22.137-12.353 22.878-13.636-22.137z"/></g><g filter="url(#d)"><path fill="#2CF9C7" fill-opacity=".8" d="m285.531 508.439 25.99-.74-12.354 22.877-25.99.74z"/></g><g filter="url(#e)"><path fill="#050067" fill-opacity=".4" d="m299.166 530.576 9.447 15.337-18.006.513-9.447-15.337z"/></g><g filter="url(#f)"><path fill="#51149E" fill-opacity=".4" d="m307.725 514.726 9.447 15.337-8.558 15.85-9.448-15.337z"/></g><g filter="url(#g)"><path fill="#6865FF" fill-opacity=".4" d="m289.719 515.239 18.006-.513-8.559 15.85-18.006.513z"/></g><g filter="url(#h)"><path fill="#FF31F7" fill-opacity=".8" d="m299.166 530.576 6.148 9.98-11.717.334-6.148-9.98z"/></g><g filter="url(#i)"><path fill="#B924FF" fill-opacity=".8" d="m304.736 520.262 6.148 9.98-5.57 10.315-6.147-9.98z"/></g><g filter="url(#j)"><path fill="#DB00FF" fill-opacity=".8" d="m293.018 520.596 11.717-.334-5.57 10.315-11.716.333z"/></g><g filter="url(#k)"><path fill="#FB40FF" fill-opacity=".4" d="m304.736 520.262 6.148 9.98-11.717.334-6.148-9.98z"/></g><g filter="url(#l)"><path fill="#FF83EB" fill-opacity=".4" d="m293.018 520.596 6.148 9.98-5.57 10.315-6.147-9.98z"/></g><path fill="url(#m)" fill-rule="evenodd" d="m299.165 530.576-6.147-9.98-.022.04 6.13 9.952-5.548 10.275.018.028 5.569-10.315Z" clip-rule="evenodd"/><g filter="url(#n)"><path fill="#DB00FF" fill-opacity=".4" d="m299.166 530.576 11.717-.334-5.57 10.315-11.716.333z"/></g><path fill="url(#o)" fill-rule="evenodd" d="m310.883 530.242-11.717.334-5.57 10.315.034-.001 5.548-10.274 11.683-.333.022-.041Z" clip-rule="evenodd"/><g filter="url(#p)"><path fill="#47F4FF" fill-opacity=".4" d="m307.725 514.726 9.447 15.337-18.006.513-9.447-15.337z"/></g><g filter="url(#q)"><path fill="#2DFFD9" fill-opacity=".4" d="m289.719 515.239 9.447 15.337-8.558 15.85-9.448-15.337z"/></g><path fill="url(#r)" fill-rule="evenodd" d="m299.166 530.577-9.447-15.337-.034.062 9.421 15.294-8.526 15.788.027.043 8.559-15.85Z" clip-rule="evenodd"/><g filter="url(#s)"><path fill="#00B2FF" fill-opacity=".4" d="m299.166 530.577 18.006-.513-8.559 15.85-18.006.513z"/></g><path fill="url(#t)" fill-rule="evenodd" d="m317.172 530.063-18.006.513-8.559 15.85.052-.001 8.525-15.787 17.954-.512.034-.063Z" clip-rule="evenodd"/><g filter="url(#u)"><path fill="url(#v)" fill-opacity=".6" d="M0 0h26v26H0z" transform="matrix(.52446 .85143 -.9996 .02848 311.52 507.699)"/></g><g filter="url(#w)"><path fill="url(#x)" fill-opacity=".6" d="M0 0h26v26H0z" transform="matrix(.52446 .85143 -.47513 .87992 285.531 508.439)"/></g><path fill="url(#y)" fill-rule="evenodd" d="m299.167 530.577-13.636-22.138-.048.09 13.597 22.074-12.305 22.788.039.063 12.353-22.877Z" clip-rule="evenodd"/><g filter="url(#z)"><path fill="url(#A)" fill-opacity=".6" d="M0 0h26v26H0z" transform="matrix(.9996 -.02848 -.47513 .87992 299.166 530.577)"/></g><path fill="url(#B)" fill-rule="evenodd" d="m325.157 529.836-25.989.74-12.354 22.878.075-.002 12.304-22.787 25.915-.738.049-.091Z" clip-rule="evenodd"/><g filter="url(#C)"><path fill="#0094FF" fill-opacity=".8" d="m1306.52 763.699 13.636 22.137-12.353 22.878-13.636-22.137z"/></g><g filter="url(#D)"><path fill="#2CF9C7" fill-opacity=".8" d="m1280.53 764.439 25.99-.74-12.354 22.877-25.99.74z"/></g><g filter="url(#E)"><path fill="#51149E" fill-opacity=".4" d="m1302.72 770.726 9.447 15.337-8.558 15.85-9.448-15.337z"/></g><g filter="url(#F)"><path fill="#6865FF" fill-opacity=".4" d="m1284.72 771.239 18.006-.513-8.559 15.85-18.006.513z"/></g><g filter="url(#G)"><path fill="#B924FF" fill-opacity=".8" d="m1299.74 776.262 6.148 9.98-5.57 10.315-6.147-9.98z"/></g><g filter="url(#H)"><path fill="#DB00FF" fill-opacity=".8" d="m1288.02 776.596 11.717-.334-5.57 10.315-11.716.333z"/></g><g filter="url(#I)"><path fill="#FB40FF" fill-opacity=".4" d="m1299.74 776.262 6.148 9.98-11.717.334-6.148-9.98z"/></g><g filter="url(#J)"><path fill="#FF83EB" fill-opacity=".4" d="m1288.02 776.596 6.148 9.98-5.57 10.315-6.147-9.98z"/></g><path fill="url(#K)" fill-rule="evenodd" d="m1294.17 786.576-6.15-9.98-.02.04 6.13 9.952-5.55 10.275.02.028 5.57-10.315Z" clip-rule="evenodd"/><g filter="url(#L)"><path fill="#47F4FF" fill-opacity=".4" d="m1302.72 770.726 9.447 15.337-18.006.513-9.447-15.337z"/></g><g filter="url(#M)"><path fill="#2DFFD9" fill-opacity=".4" d="m1284.72 771.239 9.447 15.337-8.558 15.85-9.448-15.337z"/></g><path fill="url(#N)" fill-rule="evenodd" d="m1294.17 786.577-9.45-15.337-.03.062 9.42 15.294-8.53 15.788.03.043 8.56-15.85Z" clip-rule="evenodd"/><g filter="url(#O)"><path fill="url(#P)" fill-opacity=".6" d="M0 0h26v26H0z" transform="matrix(.52446 .85143 -.9996 .02848 1306.52 763.699)"/></g><g filter="url(#Q)"><path fill="url(#R)" fill-opacity=".6" d="M0 0h26v26H0z" transform="matrix(.52446 .85143 -.47513 .87992 1280.53 764.439)"/></g><path fill="url(#S)" fill-rule="evenodd" d="m1294.17 786.577-13.64-22.138-.05.09 13.6 22.074-12.31 22.788.04.063 12.36-22.877Z" clip-rule="evenodd"/><path fill="url(#T)" fill-rule="evenodd" d="m1320.16 785.836-25.99.74-12.36 22.878.08-.002 12.3-22.787 25.92-.738.05-.091Z" clip-rule="evenodd"/><g filter="url(#U)"><path fill="#00F0FF" fill-opacity=".8" d="m186.732 22.4-21.97 47.13-29.832-42.592 21.971-47.13z"/></g><g filter="url(#V)"><path fill="#0094FF" fill-opacity=".8" d="m238.533 17.862-21.97 47.13-51.803 4.538 21.971-47.13z"/></g><g filter="url(#W)"><path fill="#2CF9C7" fill-opacity=".8" d="m208.703-24.731 29.83 42.592-51.8 4.538L156.9-20.193z"/></g><g filter="url(#X)"><path fill="#050067" fill-opacity=".4" d="M186.732 22.4 171.51 55.053l-20.668-29.51L166.064-7.11z"/></g><g filter="url(#Y)"><path fill="#51149E" fill-opacity=".4" d="M222.621 19.256 207.399 51.91l-35.89 3.144L186.731 22.4z"/></g><g filter="url(#Z)"><path fill="#6865FF" fill-opacity=".4" d="m201.953-10.253 20.668 29.51-35.89 3.144-20.668-29.51z"/></g><g filter="url(#aa)"><path fill="#FF31F7" fill-opacity=".8" d="m186.732 22.4-9.906 21.25-13.45-19.203 9.906-21.25z"/></g><g filter="url(#ab)"><path fill="#B924FF" fill-opacity=".8" d="m210.087 20.354-9.906 21.25-23.355 2.045 9.905-21.25z"/></g><g filter="url(#ac)"><path fill="#DB00FF" fill-opacity=".8" d="m196.638 1.15 13.45 19.204-23.356 2.046-13.45-19.203z"/></g><g filter="url(#ad)"><path fill="#FB40FF" fill-opacity=".4" d="m210.087 20.355-9.906 21.25-13.45-19.204 9.906-21.25z"/></g><g filter="url(#ae)"><path fill="#FF83EB" fill-opacity=".4" d="m196.638 1.15-9.906 21.25-23.355 2.046 9.905-21.25z"/></g><path fill="url(#af)" fill-rule="evenodd" d="m186.732 22.4 9.906-21.25-.093.009-9.877 21.187-23.262 2.038-.029.062 23.355-2.046Z" clip-rule="evenodd"/><g filter="url(#ag)"><path fill="#DB00FF" fill-opacity=".4" d="m186.732 22.4 13.45 19.204-23.356 2.046-13.45-19.203z"/></g><path fill="url(#ah)" fill-rule="evenodd" d="M200.181 41.604 186.732 22.4l-23.355 2.046.039.055 23.263-2.038 13.411 19.148.091-.008Z" clip-rule="evenodd"/><g filter="url(#ai)"><path fill="#47F4FF" fill-opacity=".4" d="M222.621 19.256 207.399 51.91 186.73 22.4l15.222-32.653z"/></g><g filter="url(#aj)"><path fill="#2DFFD9" fill-opacity=".4" d="m201.953-10.253-15.222 32.654-35.89 3.143 15.222-32.653z"/></g><path fill="url(#ak)" fill-rule="evenodd" d="m186.731 22.4 15.222-32.653-.142.013-15.178 32.558-35.748 3.132-.044.094 35.89-3.144Z" clip-rule="evenodd"/><g filter="url(#al)"><path fill="#00B2FF" fill-opacity=".4" d="M186.732 22.4 207.4 51.909l-35.89 3.144-20.668-29.51z"/></g><path fill="url(#am)" fill-rule="evenodd" d="M207.399 51.91 186.732 22.4l-35.889 3.145.06.085 35.747-3.132 20.608 29.424.141-.012Z" clip-rule="evenodd"/><g filter="url(#an)"><path fill="url(#ao)" fill-opacity=".6" d="M0 0h52v52H0z" transform="matrix(-.42252 .90635 -.57367 -.81909 238.533 17.862)"/></g><g filter="url(#ap)"><path fill="url(#aq)" fill-opacity=".6" d="M0 0h52v52H0z" transform="matrix(-.42252 .90635 -.99618 .08727 208.703 -24.731)"/></g><path fill="url(#ar)" fill-rule="evenodd" d="m186.732 22.4 21.971-47.131-.205.018-21.907 46.994-51.598 4.52-.063.136 51.802-4.538Z" clip-rule="evenodd"/><g filter="url(#as)"><path fill="url(#at)" fill-opacity=".6" d="M0 0h52v52H0z" transform="matrix(.57367 .81909 -.99618 .08727 186.732 22.4)"/></g><path fill="url(#au)" fill-rule="evenodd" d="M216.563 64.992 186.732 22.4l-51.802 4.538.087.123 51.596-4.52 29.744 42.47.206-.019Z" clip-rule="evenodd"/><g filter="url(#av)"><path fill="#00F0FF" fill-opacity=".8" d="m1299.55 188.763-25.462-5.26 17.286-19.421 25.463 5.26z"/></g><g filter="url(#aw)"><path fill="#0094FF" fill-opacity=".8" d="m1307.73 213.443-25.462-5.26-8.176-24.681 25.462 5.26z"/></g><g filter="url(#ax)"><path fill="#2CF9C7" fill-opacity=".8" d="m1325.01 194.023-17.287 19.42-8.175-24.68 17.286-19.421z"/></g><g filter="url(#ay)"><path fill="#050067" fill-opacity=".4" d="m1299.55 188.763-17.64-3.644 11.976-13.455 17.64 3.644z"/></g><g filter="url(#az)"><path fill="#51149E" fill-opacity=".4" d="m1305.21 205.862-17.64-3.644-5.665-17.1 17.64 3.645z"/></g><g filter="url(#aA)"><path fill="#6865FF" fill-opacity=".4" d="m1317.19 192.407-11.976 13.455-5.664-17.1 11.976-13.454z"/></g><g filter="url(#aB)"><path fill="#FF31F7" fill-opacity=".8" d="m1299.55 188.763-11.48-2.372 7.794-8.755 11.48 2.371z"/></g><g filter="url(#aC)"><path fill="#B924FF" fill-opacity=".8" d="m1303.24 199.89-11.48-2.372-3.686-11.127 11.48 2.372z"/></g><g filter="url(#aD)"><path fill="#DB00FF" fill-opacity=".8" d="m1311.03 191.135-7.794 8.756-3.686-11.128 7.794-8.755z"/></g><g filter="url(#aE)"><path fill="#FB40FF" fill-opacity=".4" d="m1303.24 199.89-11.48-2.372 7.794-8.755 11.48 2.371z"/></g><g filter="url(#aF)"><path fill="#FF83EB" fill-opacity=".4" d="m1311.03 191.135-11.48-2.372-3.686-11.127 11.48 2.372z"/></g><path fill="url(#aG)" fill-rule="evenodd" d="m1299.55 188.763 11.48 2.372-.02-.045-11.44-2.364-3.67-11.084-.04-.007 3.69 11.128Z" clip-rule="evenodd"/><g filter="url(#aH)"><path fill="#DB00FF" fill-opacity=".4" d="m1299.55 188.763-7.794 8.756-3.686-11.128 7.794-8.755z"/></g><path fill="url(#aI)" fill-rule="evenodd" d="m1291.75 197.519 7.8-8.756-3.69-11.128-.02.025 3.67 11.084-7.77 8.731.01.044Z" clip-rule="evenodd"/><g filter="url(#aJ)"><path fill="#47F4FF" fill-opacity=".4" d="m1305.21 205.862-17.64-3.644 11.976-13.455 17.64 3.644z"/></g><g filter="url(#aK)"><path fill="#2DFFD9" fill-opacity=".4" d="m1317.19 192.407-17.64-3.644-5.665-17.1 17.64 3.645z"/></g><path fill="url(#aL)" fill-rule="evenodd" d="m1299.55 188.763 17.64 3.644-.02-.067-17.59-3.634-5.64-17.032-.05-.011 5.66 17.1Z" clip-rule="evenodd"/><g filter="url(#aM)"><path fill="#00B2FF" fill-opacity=".4" d="m1299.55 188.763-11.976 13.455-5.664-17.1 11.976-13.454z"/></g><path fill="url(#aN)" fill-rule="evenodd" d="m1287.57 202.218 11.98-13.455-5.66-17.1-.04.039 5.64 17.032-11.94 13.417.02.067Z" clip-rule="evenodd"/><g filter="url(#aO)"><path fill="url(#aP)" fill-opacity=".6" d="M0 0h26v26H0z" transform="matrix(-.97932 -.20232 .66487 -.74696 1307.73 213.443)"/></g><g filter="url(#aQ)"><path fill="url(#aR)" fill-opacity=".6" d="M0 0h26v26H0z" transform="matrix(-.97932 -.20232 -.31445 -.94927 1325.01 194.023)"/></g><path fill="url(#aS)" fill-rule="evenodd" d="m1299.55 188.762 25.46 5.26-.03-.097-25.39-5.245-8.14-24.584-.07-.015 8.17 24.681Z" clip-rule="evenodd"/><g filter="url(#aT)"><path fill="url(#aU)" fill-opacity=".6" d="M0 0h26v26H0z" transform="matrix(-.66487 .74696 -.31445 -.94927 1299.55 188.763)"/></g><path fill="url(#aV)" fill-rule="evenodd" d="m1282.26 208.182 17.29-19.42-8.17-24.682-.05.057 8.14 24.583-17.24 19.365.03.097Z" clip-rule="evenodd"/></g><defs><filter id="c" width="57.99" height="77.015" x="283.166" y="491.699" color-interpolation-filters="sRGB" filterUnits="userSpaceOnUse"><feFlood flood-opacity="0" result="BackgroundImageFix"/><feGaussianBlur in="BackgroundImageFix" stdDeviation="8"/><feComposite in2="SourceAlpha" operator="in" result="effect1_backgroundBlur_484_11587"/><feBlend in="SourceGraphic" in2="effect1_backgroundBlur_484_11587" result="shape"/></filter><filter id="ax" width="57.462" height="76.102" x="1283.55" y="153.341" color-interpolation-filters="sRGB" filterUnits="userSpaceOnUse"><feFlood flood-opacity="0" result="BackgroundImageFix"/><feGaussianBlur in="BackgroundImageFix" stdDeviation="8"/><feComposite in2="SourceAlpha" operator="in" result="effect1_backgroundBlur_484_11587"/><feBlend in="SourceGraphic" in2="effect1_backgroundBlur_484_11587" result="shape"/></filter><filter id="d" width="70.343" height="55.618" x="257.178" y="491.699" color-interpolation-filters="sRGB" filterUnits="userSpaceOnUse"><feFlood flood-opacity="0" result="BackgroundImageFix"/><feGaussianBlur in="BackgroundImageFix" stdDeviation="8"/><feComposite in2="SourceAlpha" operator="in" result="effect1_backgroundBlur_484_11587"/><feBlend in="SourceGraphic" in2="effect1_backgroundBlur_484_11587" result="shape"/></filter><filter id="e" width="33.853" height="22.25" x="277.96" y="527.376" color-interpolation-filters="sRGB" filterUnits="userSpaceOnUse"><feFlood flood-opacity="0" result="BackgroundImageFix"/><feGaussianBlur in="BackgroundImageFix" stdDeviation="1.6"/><feComposite in2="SourceAlpha" operator="in" result="effect1_backgroundBlur_484_11587"/><feBlend in="SourceGraphic" in2="effect1_backgroundBlur_484_11587" result="shape"/></filter><filter id="f" width="24.406" height="37.587" x="295.966" y="511.526" color-interpolation-filters="sRGB" filterUnits="userSpaceOnUse"><feFlood flood-opacity="0" result="BackgroundImageFix"/><feGaussianBlur in="BackgroundImageFix" stdDeviation="1.6"/><feComposite in2="SourceAlpha" operator="in" result="effect1_backgroundBlur_484_11587"/><feBlend in="SourceGraphic" in2="effect1_backgroundBlur_484_11587" result="shape"/></filter><filter id="g" width="32.964" height="22.763" x="277.96" y="511.526" color-interpolation-filters="sRGB" filterUnits="userSpaceOnUse"><feFlood flood-opacity="0" result="BackgroundImageFix"/><feGaussianBlur in="BackgroundImageFix" stdDeviation="1.6"/><feComposite in2="SourceAlpha" operator="in" result="effect1_backgroundBlur_484_11587"/><feBlend in="SourceGraphic" in2="effect1_backgroundBlur_484_11587" result="shape"/></filter><filter id="h" width="24.266" height="16.715" x="284.248" y="527.376" color-interpolation-filters="sRGB" filterUnits="userSpaceOnUse"><feFlood flood-opacity="0" result="BackgroundImageFix"/><feGaussianBlur in="BackgroundImageFix" stdDeviation="1.6"/><feComposite in2="SourceAlpha" operator="in" result="effect1_backgroundBlur_484_11587"/><feBlend in="SourceGraphic" in2="effect1_backgroundBlur_484_11587" result="shape"/></filter><filter id="i" width="18.118" height="26.695" x="295.967" y="517.062" color-interpolation-filters="sRGB" filterUnits="userSpaceOnUse"><feFlood flood-opacity="0" result="BackgroundImageFix"/><feGaussianBlur in="BackgroundImageFix" stdDeviation="1.6"/><feComposite in2="SourceAlpha" operator="in" result="effect1_backgroundBlur_484_11587"/><feBlend in="SourceGraphic" in2="effect1_backgroundBlur_484_11587" result="shape"/></filter><filter id="j" width="23.688" height="17.048" x="284.248" y="517.062" color-interpolation-filters="sRGB" filterUnits="userSpaceOnUse"><feFlood flood-opacity="0" result="BackgroundImageFix"/><feGaussianBlur in="BackgroundImageFix" stdDeviation="1.6"/><feComposite in2="SourceAlpha" operator="in" result="effect1_backgroundBlur_484_11587"/><feBlend in="SourceGraphic" in2="effect1_backgroundBlur_484_11587" result="shape"/></filter><filter id="k" width="24.266" height="16.715" x="289.819" y="517.062" color-interpolation-filters="sRGB" filterUnits="userSpaceOnUse"><feFlood flood-opacity="0" result="BackgroundImageFix"/><feGaussianBlur in="BackgroundImageFix" stdDeviation="1.6"/><feComposite in2="SourceAlpha" operator="in" result="effect1_backgroundBlur_484_11587"/><feBlend in="SourceGraphic" in2="effect1_backgroundBlur_484_11587" result="shape"/></filter><filter id="l" width="18.118" height="26.695" x="284.248" y="517.396" color-interpolation-filters="sRGB" filterUnits="userSpaceOnUse"><feFlood flood-opacity="0" result="BackgroundImageFix"/><feGaussianBlur in="BackgroundImageFix" stdDeviation="1.6"/><feComposite in2="SourceAlpha" operator="in" result="effect1_backgroundBlur_484_11587"/><feBlend in="SourceGraphic" in2="effect1_backgroundBlur_484_11587" result="shape"/></filter><filter id="n" width="23.688" height="17.048" x="290.396" y="527.042" color-interpolation-filters="sRGB" filterUnits="userSpaceOnUse"><feFlood flood-opacity="0" result="BackgroundImageFix"/><feGaussianBlur in="BackgroundImageFix" stdDeviation="1.6"/><feComposite in2="SourceAlpha" operator="in" result="effect1_backgroundBlur_484_11587"/><feBlend in="SourceGraphic" in2="effect1_backgroundBlur_484_11587" result="shape"/></filter><filter id="p" width="33.853" height="22.25" x="286.519" y="511.526" color-interpolation-filters="sRGB" filterUnits="userSpaceOnUse"><feFlood flood-opacity="0" result="BackgroundImageFix"/><feGaussianBlur in="BackgroundImageFix" stdDeviation="1.6"/><feComposite in2="SourceAlpha" operator="in" result="effect1_backgroundBlur_484_11587"/><feBlend in="SourceGraphic" in2="effect1_backgroundBlur_484_11587" result="shape"/></filter><filter id="q" width="24.406" height="37.587" x="277.96" y="512.039" color-interpolation-filters="sRGB" filterUnits="userSpaceOnUse"><feFlood flood-opacity="0" result="BackgroundImageFix"/><feGaussianBlur in="BackgroundImageFix" stdDeviation="1.6"/><feComposite in2="SourceAlpha" operator="in" result="effect1_backgroundBlur_484_11587"/><feBlend in="SourceGraphic" in2="effect1_backgroundBlur_484_11587" result="shape"/></filter><filter id="s" width="32.964" height="22.763" x="287.407" y="526.864" color-interpolation-filters="sRGB" filterUnits="userSpaceOnUse"><feFlood flood-opacity="0" result="BackgroundImageFix"/><feGaussianBlur in="BackgroundImageFix" stdDeviation="1.6"/><feComposite in2="SourceAlpha" operator="in" result="effect1_backgroundBlur_484_11587"/><feBlend in="SourceGraphic" in2="effect1_backgroundBlur_484_11587" result="shape"/></filter><filter id="u" width="71.626" height="54.878" x="269.53" y="491.699" color-interpolation-filters="sRGB" filterUnits="userSpaceOnUse"><feFlood flood-opacity="0" result="BackgroundImageFix"/><feGaussianBlur in="BackgroundImageFix" stdDeviation="8"/><feComposite in2="SourceAlpha" operator="in" result="effect1_backgroundBlur_484_11587"/><feBlend in="SourceGraphic" in2="effect1_backgroundBlur_484_11587" result="shape"/></filter><filter id="w" width="57.99" height="77.015" x="257.178" y="492.439" color-interpolation-filters="sRGB" filterUnits="userSpaceOnUse"><feFlood flood-opacity="0" result="BackgroundImageFix"/><feGaussianBlur in="BackgroundImageFix" stdDeviation="8"/><feComposite in2="SourceAlpha" operator="in" result="effect1_backgroundBlur_484_11587"/><feBlend in="SourceGraphic" in2="effect1_backgroundBlur_484_11587" result="shape"/></filter><filter id="z" width="70.343" height="55.618" x="270.813" y="513.837" color-interpolation-filters="sRGB" filterUnits="userSpaceOnUse"><feFlood flood-opacity="0" result="BackgroundImageFix"/><feGaussianBlur in="BackgroundImageFix" stdDeviation="8"/><feComposite in2="SourceAlpha" operator="in" result="effect1_backgroundBlur_484_11587"/><feBlend in="SourceGraphic" in2="effect1_backgroundBlur_484_11587" result="shape"/></filter><filter id="C" width="57.989" height="77.015" x="1278.17" y="747.699" color-interpolation-filters="sRGB" filterUnits="userSpaceOnUse"><feFlood flood-opacity="0" result="BackgroundImageFix"/><feGaussianBlur in="BackgroundImageFix" stdDeviation="8"/><feComposite in2="SourceAlpha" operator="in" result="effect1_backgroundBlur_484_11587"/><feBlend in="SourceGraphic" in2="effect1_backgroundBlur_484_11587" result="shape"/></filter><filter id="D" width="70.343" height="55.618" x="1252.18" y="747.699" color-interpolation-filters="sRGB" filterUnits="userSpaceOnUse"><feFlood flood-opacity="0" result="BackgroundImageFix"/><feGaussianBlur in="BackgroundImageFix" stdDeviation="8"/><feComposite in2="SourceAlpha" operator="in" result="effect1_backgroundBlur_484_11587"/><feBlend in="SourceGraphic" in2="effect1_backgroundBlur_484_11587" result="shape"/></filter><filter id="E" width="24.406" height="37.587" x="1290.97" y="767.526" color-interpolation-filters="sRGB" filterUnits="userSpaceOnUse"><feFlood flood-opacity="0" result="BackgroundImageFix"/><feGaussianBlur in="BackgroundImageFix" stdDeviation="1.6"/><feComposite in2="SourceAlpha" operator="in" result="effect1_backgroundBlur_484_11587"/><feBlend in="SourceGraphic" in2="effect1_backgroundBlur_484_11587" result="shape"/></filter><filter id="F" width="32.964" height="22.763" x="1272.96" y="767.526" color-interpolation-filters="sRGB" filterUnits="userSpaceOnUse"><feFlood flood-opacity="0" result="BackgroundImageFix"/><feGaussianBlur in="BackgroundImageFix" stdDeviation="1.6"/><feComposite in2="SourceAlpha" operator="in" result="effect1_backgroundBlur_484_11587"/><feBlend in="SourceGraphic" in2="effect1_backgroundBlur_484_11587" result="shape"/></filter><filter id="G" width="18.117" height="26.695" x="1290.97" y="773.062" color-interpolation-filters="sRGB" filterUnits="userSpaceOnUse"><feFlood flood-opacity="0" result="BackgroundImageFix"/><feGaussianBlur in="BackgroundImageFix" stdDeviation="1.6"/><feComposite in2="SourceAlpha" operator="in" result="effect1_backgroundBlur_484_11587"/><feBlend in="SourceGraphic" in2="effect1_backgroundBlur_484_11587" result="shape"/></filter><filter id="H" width="23.687" height="17.048" x="1279.25" y="773.062" color-interpolation-filters="sRGB" filterUnits="userSpaceOnUse"><feFlood flood-opacity="0" result="BackgroundImageFix"/><feGaussianBlur in="BackgroundImageFix" stdDeviation="1.6"/><feComposite in2="SourceAlpha" operator="in" result="effect1_backgroundBlur_484_11587"/><feBlend in="SourceGraphic" in2="effect1_backgroundBlur_484_11587" result="shape"/></filter><filter id="I" width="24.265" height="16.715" x="1284.82" y="773.062" color-interpolation-filters="sRGB" filterUnits="userSpaceOnUse"><feFlood flood-opacity="0" result="BackgroundImageFix"/><feGaussianBlur in="BackgroundImageFix" stdDeviation="1.6"/><feComposite in2="SourceAlpha" operator="in" result="effect1_backgroundBlur_484_11587"/><feBlend in="SourceGraphic" in2="effect1_backgroundBlur_484_11587" result="shape"/></filter><filter id="J" width="18.117" height="26.695" x="1279.25" y="773.396" color-interpolation-filters="sRGB" filterUnits="userSpaceOnUse"><feFlood flood-opacity="0" result="BackgroundImageFix"/><feGaussianBlur in="BackgroundImageFix" stdDeviation="1.6"/><feComposite in2="SourceAlpha" operator="in" result="effect1_backgroundBlur_484_11587"/><feBlend in="SourceGraphic" in2="effect1_backgroundBlur_484_11587" result="shape"/></filter><filter id="L" width="33.853" height="22.25" x="1281.52" y="767.526" color-interpolation-filters="sRGB" filterUnits="userSpaceOnUse"><feFlood flood-opacity="0" result="BackgroundImageFix"/><feGaussianBlur in="BackgroundImageFix" stdDeviation="1.6"/><feComposite in2="SourceAlpha" operator="in" result="effect1_backgroundBlur_484_11587"/><feBlend in="SourceGraphic" in2="effect1_backgroundBlur_484_11587" result="shape"/></filter><filter id="M" width="24.406" height="37.587" x="1272.96" y="768.039" color-interpolation-filters="sRGB" filterUnits="userSpaceOnUse"><feFlood flood-opacity="0" result="BackgroundImageFix"/><feGaussianBlur in="BackgroundImageFix" stdDeviation="1.6"/><feComposite in2="SourceAlpha" operator="in" result="effect1_backgroundBlur_484_11587"/><feBlend in="SourceGraphic" in2="effect1_backgroundBlur_484_11587" result="shape"/></filter><filter id="O" width="71.625" height="54.878" x="1264.53" y="747.699" color-interpolation-filters="sRGB" filterUnits="userSpaceOnUse"><feFlood flood-opacity="0" result="BackgroundImageFix"/><feGaussianBlur in="BackgroundImageFix" stdDeviation="8"/><feComposite in2="SourceAlpha" operator="in" result="effect1_backgroundBlur_484_11587"/><feBlend in="SourceGraphic" in2="effect1_backgroundBlur_484_11587" result="shape"/></filter><filter id="Q" width="57.989" height="77.015" x="1252.18" y="748.439" color-interpolation-filters="sRGB" filterUnits="userSpaceOnUse"><feFlood flood-opacity="0" result="BackgroundImageFix"/><feGaussianBlur in="BackgroundImageFix" stdDeviation="8"/><feComposite in2="SourceAlpha" operator="in" result="effect1_backgroundBlur_484_11587"/><feBlend in="SourceGraphic" in2="effect1_backgroundBlur_484_11587" result="shape"/></filter><filter id="U" width="115.802" height="153.723" x="102.93" y="-52.193" color-interpolation-filters="sRGB" filterUnits="userSpaceOnUse"><feFlood flood-opacity="0" result="BackgroundImageFix"/><feGaussianBlur in="BackgroundImageFix" stdDeviation="16"/><feComposite in2="SourceAlpha" operator="in" result="effect1_backgroundBlur_484_11587"/><feBlend in="SourceGraphic" in2="effect1_backgroundBlur_484_11587" result="shape"/></filter><filter id="V" width="137.772" height="115.668" x="132.76" y="-14.138" color-interpolation-filters="sRGB" filterUnits="userSpaceOnUse"><feFlood flood-opacity="0" result="BackgroundImageFix"/><feGaussianBlur in="BackgroundImageFix" stdDeviation="16"/><feComposite in2="SourceAlpha" operator="in" result="effect1_backgroundBlur_484_11587"/><feBlend in="SourceGraphic" in2="effect1_backgroundBlur_484_11587" result="shape"/></filter><filter id="W" width="145.632" height="111.13" x="124.901" y="-56.731" color-interpolation-filters="sRGB" filterUnits="userSpaceOnUse"><feFlood flood-opacity="0" result="BackgroundImageFix"/><feGaussianBlur in="BackgroundImageFix" stdDeviation="16"/><feComposite in2="SourceAlpha" operator="in" result="effect1_backgroundBlur_484_11587"/><feBlend in="SourceGraphic" in2="effect1_backgroundBlur_484_11587" result="shape"/></filter><filter id="X" width="48.689" height="74.962" x="144.443" y="-13.509" color-interpolation-filters="sRGB" filterUnits="userSpaceOnUse"><feFlood flood-opacity="0" result="BackgroundImageFix"/><feGaussianBlur in="BackgroundImageFix" stdDeviation="3.2"/><feComposite in2="SourceAlpha" operator="in" result="effect1_backgroundBlur_484_11587"/><feBlend in="SourceGraphic" in2="effect1_backgroundBlur_484_11587" result="shape"/></filter><filter id="Y" width="63.911" height="48.597" x="165.109" y="12.856" color-interpolation-filters="sRGB" filterUnits="userSpaceOnUse"><feFlood flood-opacity="0" result="BackgroundImageFix"/><feGaussianBlur in="BackgroundImageFix" stdDeviation="3.2"/><feComposite in2="SourceAlpha" operator="in" result="effect1_backgroundBlur_484_11587"/><feBlend in="SourceGraphic" in2="effect1_backgroundBlur_484_11587" result="shape"/></filter><filter id="Z" width="69.357" height="45.453" x="159.663" y="-16.653" color-interpolation-filters="sRGB" filterUnits="userSpaceOnUse"><feFlood flood-opacity="0" result="BackgroundImageFix"/><feGaussianBlur in="BackgroundImageFix" stdDeviation="3.2"/><feComposite in2="SourceAlpha" operator="in" result="effect1_backgroundBlur_484_11587"/><feBlend in="SourceGraphic" in2="effect1_backgroundBlur_484_11587" result="shape"/></filter><filter id="aa" width="36.155" height="53.252" x="156.977" y="-3.202" color-interpolation-filters="sRGB" filterUnits="userSpaceOnUse"><feFlood flood-opacity="0" result="BackgroundImageFix"/><feGaussianBlur in="BackgroundImageFix" stdDeviation="3.2"/><feComposite in2="SourceAlpha" operator="in" result="effect1_backgroundBlur_484_11587"/><feBlend in="SourceGraphic" in2="effect1_backgroundBlur_484_11587" result="shape"/></filter><filter id="ab" width="46.061" height="36.095" x="170.427" y="13.954" color-interpolation-filters="sRGB" filterUnits="userSpaceOnUse"><feFlood flood-opacity="0" result="BackgroundImageFix"/><feGaussianBlur in="BackgroundImageFix" stdDeviation="3.2"/><feComposite in2="SourceAlpha" operator="in" result="effect1_backgroundBlur_484_11587"/><feBlend in="SourceGraphic" in2="effect1_backgroundBlur_484_11587" result="shape"/></filter><filter id="ac" width="49.604" height="34.049" x="166.883" y="-5.249" color-interpolation-filters="sRGB" filterUnits="userSpaceOnUse"><feFlood flood-opacity="0" result="BackgroundImageFix"/><feGaussianBlur in="BackgroundImageFix" stdDeviation="3.2"/><feComposite in2="SourceAlpha" operator="in" result="effect1_backgroundBlur_484_11587"/><feBlend in="SourceGraphic" in2="effect1_backgroundBlur_484_11587" result="shape"/></filter><filter id="ad" width="36.155" height="53.252" x="180.332" y="-5.248" color-interpolation-filters="sRGB" filterUnits="userSpaceOnUse"><feFlood flood-opacity="0" result="BackgroundImageFix"/><feGaussianBlur in="BackgroundImageFix" stdDeviation="3.2"/><feComposite in2="SourceAlpha" operator="in" result="effect1_backgroundBlur_484_11587"/><feBlend in="SourceGraphic" in2="effect1_backgroundBlur_484_11587" result="shape"/></filter><filter id="ae" width="46.061" height="36.095" x="156.977" y="-5.249" color-interpolation-filters="sRGB" filterUnits="userSpaceOnUse"><feFlood flood-opacity="0" result="BackgroundImageFix"/><feGaussianBlur in="BackgroundImageFix" stdDeviation="3.2"/><feComposite in2="SourceAlpha" operator="in" result="effect1_backgroundBlur_484_11587"/><feBlend in="SourceGraphic" in2="effect1_backgroundBlur_484_11587" result="shape"/></filter><filter id="ag" width="49.604" height="34.049" x="156.977" y="16.001" color-interpolation-filters="sRGB" filterUnits="userSpaceOnUse"><feFlood flood-opacity="0" result="BackgroundImageFix"/><feGaussianBlur in="BackgroundImageFix" stdDeviation="3.2"/><feComposite in2="SourceAlpha" operator="in" result="effect1_backgroundBlur_484_11587"/><feBlend in="SourceGraphic" in2="effect1_backgroundBlur_484_11587" result="shape"/></filter><filter id="ai" width="48.689" height="74.962" x="180.331" y="-16.653" color-interpolation-filters="sRGB" filterUnits="userSpaceOnUse"><feFlood flood-opacity="0" result="BackgroundImageFix"/><feGaussianBlur in="BackgroundImageFix" stdDeviation="3.2"/><feComposite in2="SourceAlpha" operator="in" result="effect1_backgroundBlur_484_11587"/><feBlend in="SourceGraphic" in2="effect1_backgroundBlur_484_11587" result="shape"/></filter><filter id="aj" width="63.911" height="48.597" x="144.441" y="-16.653" color-interpolation-filters="sRGB" filterUnits="userSpaceOnUse"><feFlood flood-opacity="0" result="BackgroundImageFix"/><feGaussianBlur in="BackgroundImageFix" stdDeviation="3.2"/><feComposite in2="SourceAlpha" operator="in" result="effect1_backgroundBlur_484_11587"/><feBlend in="SourceGraphic" in2="effect1_backgroundBlur_484_11587" result="shape"/></filter><filter id="al" width="69.357" height="45.453" x="144.443" y="16" color-interpolation-filters="sRGB" filterUnits="userSpaceOnUse"><feFlood flood-opacity="0" result="BackgroundImageFix"/><feGaussianBlur in="BackgroundImageFix" stdDeviation="3.2"/><feComposite in2="SourceAlpha" operator="in" result="effect1_backgroundBlur_484_11587"/><feBlend in="SourceGraphic" in2="effect1_backgroundBlur_484_11587" result="shape"/></filter><filter id="an" width="115.802" height="153.723" x="154.731" y="-56.731" color-interpolation-filters="sRGB" filterUnits="userSpaceOnUse"><feFlood flood-opacity="0" result="BackgroundImageFix"/><feGaussianBlur in="BackgroundImageFix" stdDeviation="16"/><feComposite in2="SourceAlpha" operator="in" result="effect1_backgroundBlur_484_11587"/><feBlend in="SourceGraphic" in2="effect1_backgroundBlur_484_11587" result="shape"/></filter><filter id="ap" width="137.772" height="115.668" x="102.93" y="-56.731" color-interpolation-filters="sRGB" filterUnits="userSpaceOnUse"><feFlood flood-opacity="0" result="BackgroundImageFix"/><feGaussianBlur in="BackgroundImageFix" stdDeviation="16"/><feComposite in2="SourceAlpha" operator="in" result="effect1_backgroundBlur_484_11587"/><feBlend in="SourceGraphic" in2="effect1_backgroundBlur_484_11587" result="shape"/></filter><filter id="as" width="145.632" height="111.13" x="102.93" y="-9.6" color-interpolation-filters="sRGB" filterUnits="userSpaceOnUse"><feFlood flood-opacity="0" result="BackgroundImageFix"/><feGaussianBlur in="BackgroundImageFix" stdDeviation="16"/><feComposite in2="SourceAlpha" operator="in" result="effect1_backgroundBlur_484_11587"/><feBlend in="SourceGraphic" in2="effect1_backgroundBlur_484_11587" result="shape"/></filter><filter id="av" width="74.749" height="56.681" x="1258.09" y="148.081" color-interpolation-filters="sRGB" filterUnits="userSpaceOnUse"><feFlood flood-opacity="0" result="BackgroundImageFix"/><feGaussianBlur in="BackgroundImageFix" stdDeviation="8"/><feComposite in2="SourceAlpha" operator="in" result="effect1_backgroundBlur_484_11587"/><feBlend in="SourceGraphic" in2="effect1_backgroundBlur_484_11587" result="shape"/></filter><filter id="aw" width="65.638" height="61.941" x="1258.09" y="167.502" color-interpolation-filters="sRGB" filterUnits="userSpaceOnUse"><feFlood flood-opacity="0" result="BackgroundImageFix"/><feGaussianBlur in="BackgroundImageFix" stdDeviation="8"/><feComposite in2="SourceAlpha" operator="in" result="effect1_backgroundBlur_484_11587"/><feBlend in="SourceGraphic" in2="effect1_backgroundBlur_484_11587" result="shape"/></filter><filter id="b" width="71.626" height="54.878" x="257.177" y="514.577" color-interpolation-filters="sRGB" filterUnits="userSpaceOnUse"><feFlood flood-opacity="0" result="BackgroundImageFix"/><feGaussianBlur in="BackgroundImageFix" stdDeviation="8"/><feComposite in2="SourceAlpha" operator="in" result="effect1_backgroundBlur_484_11587"/><feBlend in="SourceGraphic" in2="effect1_backgroundBlur_484_11587" result="shape"/></filter><filter id="ay" width="36.017" height="23.5" x="1278.71" y="168.463" color-interpolation-filters="sRGB" filterUnits="userSpaceOnUse"><feFlood flood-opacity="0" result="BackgroundImageFix"/><feGaussianBlur in="BackgroundImageFix" stdDeviation="1.6"/><feComposite in2="SourceAlpha" operator="in" result="effect1_backgroundBlur_484_11587"/><feBlend in="SourceGraphic" in2="effect1_backgroundBlur_484_11587" result="shape"/></filter><filter id="az" width="29.705" height="27.144" x="1278.71" y="181.918" color-interpolation-filters="sRGB" filterUnits="userSpaceOnUse"><feFlood flood-opacity="0" result="BackgroundImageFix"/><feGaussianBlur in="BackgroundImageFix" stdDeviation="1.6"/><feComposite in2="SourceAlpha" operator="in" result="effect1_backgroundBlur_484_11587"/><feBlend in="SourceGraphic" in2="effect1_backgroundBlur_484_11587" result="shape"/></filter><filter id="aA" width="24.041" height="36.955" x="1296.35" y="172.107" color-interpolation-filters="sRGB" filterUnits="userSpaceOnUse"><feFlood flood-opacity="0" result="BackgroundImageFix"/><feGaussianBlur in="BackgroundImageFix" stdDeviation="1.6"/><feComposite in2="SourceAlpha" operator="in" result="effect1_backgroundBlur_484_11587"/><feBlend in="SourceGraphic" in2="effect1_backgroundBlur_484_11587" result="shape"/></filter><filter id="aB" width="25.673" height="17.528" x="1284.87" y="174.435" color-interpolation-filters="sRGB" filterUnits="userSpaceOnUse"><feFlood flood-opacity="0" result="BackgroundImageFix"/><feGaussianBlur in="BackgroundImageFix" stdDeviation="1.6"/><feComposite in2="SourceAlpha" operator="in" result="effect1_backgroundBlur_484_11587"/><feBlend in="SourceGraphic" in2="effect1_backgroundBlur_484_11587" result="shape"/></filter><filter id="aC" width="21.566" height="19.899" x="1284.87" y="183.191" color-interpolation-filters="sRGB" filterUnits="userSpaceOnUse"><feFlood flood-opacity="0" result="BackgroundImageFix"/><feGaussianBlur in="BackgroundImageFix" stdDeviation="1.6"/><feComposite in2="SourceAlpha" operator="in" result="effect1_backgroundBlur_484_11587"/><feBlend in="SourceGraphic" in2="effect1_backgroundBlur_484_11587" result="shape"/></filter><filter id="aD" width="17.88" height="26.284" x="1296.35" y="176.807" color-interpolation-filters="sRGB" filterUnits="userSpaceOnUse"><feFlood flood-opacity="0" result="BackgroundImageFix"/><feGaussianBlur in="BackgroundImageFix" stdDeviation="1.6"/><feComposite in2="SourceAlpha" operator="in" result="effect1_backgroundBlur_484_11587"/><feBlend in="SourceGraphic" in2="effect1_backgroundBlur_484_11587" result="shape"/></filter><filter id="aE" width="25.673" height="17.528" x="1288.56" y="185.563" color-interpolation-filters="sRGB" filterUnits="userSpaceOnUse"><feFlood flood-opacity="0" result="BackgroundImageFix"/><feGaussianBlur in="BackgroundImageFix" stdDeviation="1.6"/><feComposite in2="SourceAlpha" operator="in" result="effect1_backgroundBlur_484_11587"/><feBlend in="SourceGraphic" in2="effect1_backgroundBlur_484_11587" result="shape"/></filter><filter id="aF" width="21.566" height="19.899" x="1292.66" y="174.435" color-interpolation-filters="sRGB" filterUnits="userSpaceOnUse"><feFlood flood-opacity="0" result="BackgroundImageFix"/><feGaussianBlur in="BackgroundImageFix" stdDeviation="1.6"/><feComposite in2="SourceAlpha" operator="in" result="effect1_backgroundBlur_484_11587"/><feBlend in="SourceGraphic" in2="effect1_backgroundBlur_484_11587" result="shape"/></filter><filter id="aH" width="17.88" height="26.284" x="1284.87" y="174.435" color-interpolation-filters="sRGB" filterUnits="userSpaceOnUse"><feFlood flood-opacity="0" result="BackgroundImageFix"/><feGaussianBlur in="BackgroundImageFix" stdDeviation="1.6"/><feComposite in2="SourceAlpha" operator="in" result="effect1_backgroundBlur_484_11587"/><feBlend in="SourceGraphic" in2="effect1_backgroundBlur_484_11587" result="shape"/></filter><filter id="aJ" width="36.017" height="23.5" x="1284.37" y="185.563" color-interpolation-filters="sRGB" filterUnits="userSpaceOnUse"><feFlood flood-opacity="0" result="BackgroundImageFix"/><feGaussianBlur in="BackgroundImageFix" stdDeviation="1.6"/><feComposite in2="SourceAlpha" operator="in" result="effect1_backgroundBlur_484_11587"/><feBlend in="SourceGraphic" in2="effect1_backgroundBlur_484_11587" result="shape"/></filter><filter id="aK" width="29.705" height="27.144" x="1290.69" y="168.463" color-interpolation-filters="sRGB" filterUnits="userSpaceOnUse"><feFlood flood-opacity="0" result="BackgroundImageFix"/><feGaussianBlur in="BackgroundImageFix" stdDeviation="1.6"/><feComposite in2="SourceAlpha" operator="in" result="effect1_backgroundBlur_484_11587"/><feBlend in="SourceGraphic" in2="effect1_backgroundBlur_484_11587" result="shape"/></filter><filter id="aM" width="24.041" height="36.955" x="1278.71" y="168.463" color-interpolation-filters="sRGB" filterUnits="userSpaceOnUse"><feFlood flood-opacity="0" result="BackgroundImageFix"/><feGaussianBlur in="BackgroundImageFix" stdDeviation="1.6"/><feComposite in2="SourceAlpha" operator="in" result="effect1_backgroundBlur_484_11587"/><feBlend in="SourceGraphic" in2="effect1_backgroundBlur_484_11587" result="shape"/></filter><filter id="aO" width="74.749" height="56.681" x="1266.26" y="172.762" color-interpolation-filters="sRGB" filterUnits="userSpaceOnUse"><feFlood flood-opacity="0" result="BackgroundImageFix"/><feGaussianBlur in="BackgroundImageFix" stdDeviation="8"/><feComposite in2="SourceAlpha" operator="in" result="effect1_backgroundBlur_484_11587"/><feBlend in="SourceGraphic" in2="effect1_backgroundBlur_484_11587" result="shape"/></filter><filter id="aQ" width="65.638" height="61.941" x="1275.38" y="148.081" color-interpolation-filters="sRGB" filterUnits="userSpaceOnUse"><feFlood flood-opacity="0" result="BackgroundImageFix"/><feGaussianBlur in="BackgroundImageFix" stdDeviation="8"/><feComposite in2="SourceAlpha" operator="in" result="effect1_backgroundBlur_484_11587"/><feBlend in="SourceGraphic" in2="effect1_backgroundBlur_484_11587" result="shape"/></filter><filter id="aT" width="57.462" height="76.102" x="1258.09" y="148.081" color-interpolation-filters="sRGB" filterUnits="userSpaceOnUse"><feFlood flood-opacity="0" result="BackgroundImageFix"/><feGaussianBlur in="BackgroundImageFix" stdDeviation="8"/><feComposite in2="SourceAlpha" operator="in" result="effect1_backgroundBlur_484_11587"/><feBlend in="SourceGraphic" in2="effect1_backgroundBlur_484_11587" result="shape"/></filter><linearGradient id="o" x1="299.204" x2="308.139" y1="530.505" y2="535.408" gradientUnits="userSpaceOnUse"><stop stop-color="#fff"/><stop offset="1" stop-color="#fff" stop-opacity="0"/></linearGradient><linearGradient id="ak" x1="186.978" x2="182.917" y1="22.378" y2="-9.326" gradientUnits="userSpaceOnUse"><stop stop-color="#fff"/><stop offset="1" stop-color="#fff" stop-opacity="0"/></linearGradient><linearGradient id="r" x1="299.225" x2="284.87" y1="530.468" y2="523.443" gradientUnits="userSpaceOnUse"><stop stop-color="#fff"/><stop offset="1" stop-color="#fff" stop-opacity="0"/></linearGradient><linearGradient id="t" x1="299.225" x2="312.955" y1="530.467" y2="538.001" gradientUnits="userSpaceOnUse"><stop stop-color="#fff"/><stop offset="1" stop-color="#fff" stop-opacity="0"/></linearGradient><linearGradient id="v" x1="0" x2="26" y1="0" y2="0" gradientUnits="userSpaceOnUse"><stop stop-color="#fff"/><stop offset="1" stop-color="#fff" stop-opacity="0"/></linearGradient><linearGradient id="x" x1="0" x2="26.35" y1="26.171" y2="25.816" gradientUnits="userSpaceOnUse"><stop stop-color="#fff"/><stop offset="1" stop-color="#fff" stop-opacity="0"/></linearGradient><linearGradient id="y" x1="299.253" x2="278.532" y1="530.419" y2="520.279" gradientUnits="userSpaceOnUse"><stop stop-color="#fff"/><stop offset="1" stop-color="#fff" stop-opacity="0"/></linearGradient><linearGradient id="A" x1="26" x2="-.057" y1="26.171" y2="26.114" gradientUnits="userSpaceOnUse"><stop stop-color="#fff"/><stop offset="1" stop-color="#fff" stop-opacity="0"/></linearGradient><linearGradient id="B" x1="299.253" x2="319.071" y1="530.418" y2="541.293" gradientUnits="userSpaceOnUse"><stop stop-color="#fff"/><stop offset="1" stop-color="#fff" stop-opacity="0"/></linearGradient><linearGradient id="K" x1="1294.2" x2="1284.86" y1="786.505" y2="781.934" gradientUnits="userSpaceOnUse"><stop stop-color="#fff"/><stop offset="1" stop-color="#fff" stop-opacity="0"/></linearGradient><linearGradient id="N" x1="1294.23" x2="1279.87" y1="786.468" y2="779.443" gradientUnits="userSpaceOnUse"><stop stop-color="#fff"/><stop offset="1" stop-color="#fff" stop-opacity="0"/></linearGradient><linearGradient id="P" x1="0" x2="26" y1="0" y2="0" gradientUnits="userSpaceOnUse"><stop stop-color="#fff"/><stop offset="1" stop-color="#fff" stop-opacity="0"/></linearGradient><linearGradient id="R" x1="0" x2="26.35" y1="26.171" y2="25.816" gradientUnits="userSpaceOnUse"><stop stop-color="#fff"/><stop offset="1" stop-color="#fff" stop-opacity="0"/></linearGradient><linearGradient id="S" x1="1294.25" x2="1273.53" y1="786.419" y2="776.279" gradientUnits="userSpaceOnUse"><stop stop-color="#fff"/><stop offset="1" stop-color="#fff" stop-opacity="0"/></linearGradient><linearGradient id="T" x1="1294.25" x2="1314.07" y1="786.418" y2="797.293" gradientUnits="userSpaceOnUse"><stop stop-color="#fff"/><stop offset="1" stop-color="#fff" stop-opacity="0"/></linearGradient><linearGradient id="af" x1="186.893" x2="184.251" y1="22.386" y2="1.753" gradientUnits="userSpaceOnUse"><stop stop-color="#fff"/><stop offset="1" stop-color="#fff" stop-opacity="0"/></linearGradient><linearGradient id="ah" x1="186.893" x2="188.535" y1="22.387" y2="42.704" gradientUnits="userSpaceOnUse"><stop stop-color="#fff"/><stop offset="1" stop-color="#fff" stop-opacity="0"/></linearGradient><linearGradient id="m" x1="299.204" x2="289.862" y1="530.505" y2="525.934" gradientUnits="userSpaceOnUse"><stop stop-color="#fff"/><stop offset="1" stop-color="#fff" stop-opacity="0"/></linearGradient><linearGradient id="am" x1="186.98" x2="189.502" y1="22.379" y2="53.6" gradientUnits="userSpaceOnUse"><stop stop-color="#fff"/><stop offset="1" stop-color="#fff" stop-opacity="0"/></linearGradient><linearGradient id="ao" x1="0" x2="52" y1="0" y2="0" gradientUnits="userSpaceOnUse"><stop stop-color="#fff"/><stop offset="1" stop-color="#fff" stop-opacity="0"/></linearGradient><linearGradient id="aq" x1="0" x2="52.701" y1="52.342" y2="51.632" gradientUnits="userSpaceOnUse"><stop stop-color="#fff"/><stop offset="1" stop-color="#fff" stop-opacity="0"/></linearGradient><linearGradient id="ar" x1="187.089" x2="181.227" y1="22.368" y2="-23.394" gradientUnits="userSpaceOnUse"><stop stop-color="#fff"/><stop offset="1" stop-color="#fff" stop-opacity="0"/></linearGradient><linearGradient id="at" x1="52" x2="-.114" y1="52.342" y2="52.228" gradientUnits="userSpaceOnUse"><stop stop-color="#fff"/><stop offset="1" stop-color="#fff" stop-opacity="0"/></linearGradient><linearGradient id="au" x1="187.089" x2="190.73" y1="22.369" y2="67.432" gradientUnits="userSpaceOnUse"><stop stop-color="#fff"/><stop offset="1" stop-color="#fff" stop-opacity="0"/></linearGradient><linearGradient id="aG" x1="1299.57" x2="1309.31" y1="188.84" y2="185.177" gradientUnits="userSpaceOnUse"><stop stop-color="#fff"/><stop offset="1" stop-color="#fff" stop-opacity="0"/></linearGradient><linearGradient id="aI" x1="1299.57" x2="1289.88" y1="188.839" y2="191.979" gradientUnits="userSpaceOnUse"><stop stop-color="#fff"/><stop offset="1" stop-color="#fff" stop-opacity="0"/></linearGradient><linearGradient id="aL" x1="1299.59" x2="1314.55" y1="188.881" y2="183.252" gradientUnits="userSpaceOnUse"><stop stop-color="#fff"/><stop offset="1" stop-color="#fff" stop-opacity="0"/></linearGradient><linearGradient id="aN" x1="1299.59" x2="1284.69" y1="188.881" y2="193.705" gradientUnits="userSpaceOnUse"><stop stop-color="#fff"/><stop offset="1" stop-color="#fff" stop-opacity="0"/></linearGradient><linearGradient id="aP" x1="0" x2="26" y1="0" y2="0" gradientUnits="userSpaceOnUse"><stop stop-color="#fff"/><stop offset="1" stop-color="#fff" stop-opacity="0"/></linearGradient><linearGradient id="aR" x1="0" x2="26.35" y1="26.171" y2="25.816" gradientUnits="userSpaceOnUse"><stop stop-color="#fff"/><stop offset="1" stop-color="#fff" stop-opacity="0"/></linearGradient><linearGradient id="aS" x1="1299.61" x2="1321.2" y1="188.932" y2="180.808" gradientUnits="userSpaceOnUse"><stop stop-color="#fff"/><stop offset="1" stop-color="#fff" stop-opacity="0"/></linearGradient><linearGradient id="aU" x1="26" x2="-.057" y1="26.171" y2="26.114" gradientUnits="userSpaceOnUse"><stop stop-color="#fff"/><stop offset="1" stop-color="#fff" stop-opacity="0"/></linearGradient><linearGradient id="aV" x1="1299.61" x2="1278.1" y1="188.932" y2="195.895" gradientUnits="userSpaceOnUse"><stop stop-color="#fff"/><stop offset="1" stop-color="#fff" stop-opacity="0"/></linearGradient><clipPath id="a"><path fill="#fff" d="M0 0h1440v777H0z"/></clipPath></defs></svg>